<?xml version="1.0" encoding="utf-8"?>
<!-- Generator: Adobe Illustrator 22.0.1, SVG Export Plug-In . SVG Version: 6.00 Build 0)  -->
<svg version="1.1" xmlns="http://www.w3.org/2000/svg" xmlns:xlink="http://www.w3.org/1999/xlink" x="0px" y="0px"
	 viewBox="0 0 1280 640" style="enable-background:new 0 0 1280 640;" xml:space="preserve">
<style type="text/css">
	.st0{display:none;}
	.st1{fill:#EF4124;enable-background:new    ;}
	.st2{fill:#F37044;enable-background:new    ;}
	.st3{fill:#F7966C;enable-background:new    ;}
	.st4{fill:#FBBD98;enable-background:new    ;}
	.st5{fill:#FDD2B2;enable-background:new    ;}
	.st6{enable-background:new    ;}
	.st7{fill:#ABABAB;enable-background:new    ;}
	.st8{fill:#FFFFFF;}
	.st9{fill:#FFFFFF;enable-background:new    ;}
</style>
<g id="Camada_1">
	<g id="Layer_2" class="st0">
	</g>
	
		<image style="display:none;overflow:visible;enable-background:new    ;" width="1500" height="1500" xlink:href="98A01748.png"  transform="matrix(0.75 0 0 0.75 78 -243)">
	</image>
	<path class="st1" d="M469.5,190.5h-267c-6.6,0-12-5.4-12-12v-37.6c0-6.6,5.4-12,12-12h267c6.6,0,12,5.4,12,12v37.6
		C481.5,185.1,476.1,190.5,469.5,190.5z"/>
	<path class="st2" d="M469.5,279.2H243.8c-6.6,0-12-5.4-12-12v-37.6c0-6.6,5.4-12,12-12h225.7c6.6,0,12,5.4,12,12v37.6
		C481.5,273.8,476.1,279.2,469.5,279.2z"/>
	<path class="st3" d="M469.5,367.3h-162c-6.6,0-12-5.4-12-12v-37.6c0-6.6,5.4-12,12-12h162c6.6,0,12,5.4,12,12v37.6
		C481.5,361.9,476.1,367.3,469.5,367.3z"/>
	<path class="st4" d="M469.5,456H346.4c-6.6,0-12-5.4-12-12v-37.5c0-6.6,5.4-12,12-12h123.1c6.6,0,12,5.4,12,12V444
		C481.5,450.6,476.1,456,469.5,456z"/>
	<path class="st5" d="M469.5,544.9h-69.8c-6.6,0-12-5.4-12-12v-37.6c0-6.6,5.4-12,12-12h69.8c6.6,0,12,5.4,12,12v37.6
		C481.5,539.5,476.1,544.9,469.5,544.9z"/>
	<g>
		<path d="M585.3,229.6h-20v76.2h-25.7V130.9h25.7v72.4h20v-72.4H611v174.9h-25.7V229.6z"/>
		<path d="M621,305.8l26.4-174.9h31.4l26.4,174.9h-25l-4.8-35.7h-24.8l-4.8,35.7H621z M664.5,187.7l-0.7-4.5h-1.4l-0.7,4.5
			l-7.4,55.2h17.6L664.5,187.7z"/>
		<path d="M782.1,245.8v24c-0.2,7.1-1.7,13.6-4.3,19c-2.1,4.8-5.5,9.3-10.2,12.9c-4.8,3.8-11.2,6-19.8,6c-8.6,0-15.2-2.1-20-6
			c-4.8-3.6-7.9-8.1-10-12.9c-2.6-5.5-4-11.9-4.3-19V166.8c0.2-6.9,1.7-13.3,4.3-18.8c2.1-4.8,5.2-9.5,10-13.1c4.8-3.6,11.4-6,20-6
			c8.6,0,15,2.4,19.8,6c4.8,3.6,8.1,8.3,10.2,13.1c2.6,5.5,4,11.9,4.3,18.8v24h-24v-24c0-4.8-1.2-8.1-3.8-10.9
			c-1.2-1.2-3.3-1.9-6-1.9c-4.5,0-6.7,3.3-7.9,6.4c-0.7,1.9-1,4-1.2,6.4v103.1c0.2,5,1.7,8.3,4,10.9c1.2,1.2,2.9,1.9,5,1.9
			c5.5,0,7.6-2.9,8.8-6.4c0.7-1.7,1-3.8,1-6.4v-24H782.1z"/>
		<path d="M821.4,130.9V192h1l1.2-2.9l21.4-58.3h25l-23.6,57.6L873,305.8h-25l-17.9-76.2l-0.7-3.6h-0.7l-1.4,3.6l-6,14.3v61.9h-25.7
			V130.9H821.4z"/>
		<path d="M883,130.9h25.7v174.9H883V130.9z"/>
		<path d="M953,214.6l-2.1-8.1h-1.4v99.2h-23.6V130.9h22.8l25,91.2l2.1,8.1h1.4v-99.2h23.6v174.9H978L953,214.6z"/>
		<path d="M1059.1,193.7v-26.9c0-4.8-1-8.1-3.3-10.9c-1.2-1.2-3.1-1.9-5.2-1.9c-4.5,0-6.7,3.3-7.6,6.4c-0.7,1.9-1,4-1,6.4V272
			c0,5,1.2,8.3,3.6,10.9c1.2,1.2,2.9,1.9,5,1.9c4.5,0,6.7-2.9,7.6-6.4c0.7-1.7,1-3.8,1-6.4v-31.7h-10.2v-21.7h35.9v87.1h-15.2
			l-3.1-8.3c-4.8,6-11.7,10.2-20,10.2s-14-2.1-18.3-6c-4.3-3.6-7.1-8.1-9-12.9c-2.1-5.5-3.1-11.9-2.9-19V166.8
			c0.2-6.9,1.7-13.3,4.3-18.8c2.1-4.8,5.2-9.5,10-13.1c4.8-3.6,11.4-6,20-6s15,2.4,19.8,6c4.8,3.6,8.1,8.3,10.2,13.1
			c2.6,5.5,4,11.9,4.3,18.8v26.9H1059.1z"/>
		<path d="M575.4,377.5v-24.1c0-4.3-0.9-7.2-3-9.8c-1.1-1.1-2.8-1.7-4.7-1.7c-4,0-6,3-6.8,5.8c-0.6,1.7-0.9,3.6-0.9,5.8v94.1
			c0,4.5,1.1,7.5,3.2,9.8c1.1,1.1,2.6,1.7,4.5,1.7c4,0,6-2.6,6.8-5.8c0.6-1.5,0.9-3.4,0.9-5.8v-28.3h-9.2v-19.4h32.2v78h-13.6
			l-2.8-7.5c-4.3,5.3-10.4,9.2-17.9,9.2s-12.6-1.9-16.4-5.3c-3.8-3.2-6.4-7.2-8.1-11.5c-1.9-4.9-2.8-10.6-2.6-17v-92.2
			c0.2-6.2,1.5-11.9,3.8-16.8c1.9-4.3,4.7-8.5,8.9-11.7c4.3-3.2,10.2-5.3,17.9-5.3s13.4,2.1,17.7,5.3c4.3,3.2,7.2,7.5,9.2,11.7
			c2.3,4.9,3.6,10.7,3.8,16.8v24.1H575.4z"/>
		<path d="M655.1,477.8l-11.9-66H637v66h-23V321.2h23c27.5,0,39.2,15.5,39.2,45.2c0,15.5-4,29.6-12.8,35.6l14.7,75.8H655.1z
			 M637,390.5c3.2,0,7.5-0.4,10.9-3.4c3.4-3,6.2-8.7,6.2-19.8c0-11.1-2.8-17-6.2-20c-3.4-3-7.7-3.2-10.9-3.2V390.5z"/>
		<path d="M749.5,445.6c-0.2,6.4-1.5,12.1-3.8,17c-1.9,4.3-4.9,8.3-9.2,11.5c-4.3,3.4-10,5.3-17.7,5.3s-13.6-1.9-17.9-5.3
			c-4.3-3.2-7-7.2-8.9-11.5c-2.3-4.9-3.6-10.6-3.8-17v-92.2c0.2-6.2,1.5-11.9,3.8-16.8c1.9-4.3,4.7-8.5,8.9-11.7
			c4.3-3.2,10.2-5.3,17.9-5.3s13.4,2.1,17.7,5.3c4.3,3.2,7.2,7.5,9.2,11.7c2.3,4.9,3.6,10.7,3.8,16.8V445.6z M726.5,353.4
			c0-4.3-0.9-7.2-3-9.8c-1.1-1.1-2.8-1.7-4.7-1.7c-4,0-6,3-6.8,5.8c-0.6,1.7-0.9,3.6-0.9,5.8v92.2c0,4.5,1.1,7.5,3.2,9.8
			c1.1,1.1,2.6,1.7,4.5,1.7c4,0,6-2.6,6.8-5.8c0.6-1.5,0.9-3.4,0.9-5.8V353.4z"/>
		<path d="M796.7,477.8h-17.9l-21.1-156.6h21.3l9.2,81.4l0.4,5.1h1.7l0.6-5.1l9.8-81.4h16.6l9.8,81.4l0.6,5.1h1.7l0.4-5.1l9.2-81.4
			h21.3l-21.1,156.6h-17.9l-10.6-74.1l-1.3-9.2h-0.9l-1.3,9.2L796.7,477.8z"/>
		<path d="M862.1,344.9v-23.6h66.5v23.6h-21.7v132.9h-23V344.9H862.1z"/>
		<path d="M977.2,409.6h-17.9v68.2h-23V321.2h23V386h17.9v-64.8h23v156.6h-23V409.6z"/>
	</g>
	<g class="st6">
		<path class="st7" d="M555.8,501.5v6.8H553v24.1h2.8v6.7h-13.7v-6.7h2.8v-24.1h-2.8v-6.8H555.8z"/>
		<path class="st7" d="M610.1,501.5h8.1V539h-7.7l-18-24.5V539h-8.1v-37.6h7.5l18.2,24.7V501.5z"/>
		<path class="st7" d="M664.5,500.9c2.5,0,4.9,0.5,7.2,1.5c2.3,1,4.2,2.4,5.9,4.2c1.7,1.8,3,3.8,4,6.1s1.5,4.8,1.5,7.5
			c0,2.6-0.5,5.1-1.5,7.5s-2.3,4.4-4,6.2c-1.7,1.8-3.6,3.2-5.9,4.2c-2.3,1-4.7,1.6-7.2,1.6s-4.9-0.5-7.2-1.6c-2.3-1-4.2-2.4-5.9-4.2
			c-1.7-1.8-3-3.8-3.9-6.2s-1.5-4.9-1.5-7.5c0-2.7,0.5-5.1,1.5-7.5s2.3-4.4,3.9-6.1s3.6-3.2,5.9-4.2
			C659.6,501.4,662,500.9,664.5,500.9z M664.5,531.7c1.4,0,2.8-0.3,4.1-0.9s2.4-1.4,3.3-2.5c1-1,1.7-2.3,2.2-3.6
			c0.5-1.4,0.8-2.9,0.8-4.5s-0.3-3.1-0.8-4.5s-1.3-2.6-2.2-3.7c-1-1-2.1-1.9-3.3-2.5c-1.3-0.6-2.6-0.9-4.1-0.9
			c-1.4,0-2.8,0.3-4.1,0.9c-1.3,0.6-2.4,1.4-3.3,2.5c-1,1-1.7,2.3-2.2,3.7c-0.5,1.4-0.8,2.9-0.8,4.5s0.3,3.1,0.8,4.5
			c0.5,1.4,1.3,2.6,2.2,3.6c1,1,2.1,1.9,3.3,2.5S663.1,531.7,664.5,531.7z"/>
		<path class="st7" d="M739.5,501.5h8.7L732.4,539h-8.9l-15.8-37.6h8.7l11.5,28.1L739.5,501.5z"/>
		<path class="st7" d="M792.8,501.5l15.7,37.6h-8.7l-3.4-8.1h-16l-3.3,8.1h-8.7l15.7-37.6H792.8z M793.4,523.7l-4.9-11.8l-4.9,11.8
			H793.4z"/>
		<path class="st7" d="M854.3,541.8c0.6,0.3,1.2,0.6,1.6,1.1c0.5,0.4,0.8,1,1,1.5c0.2,0.6,0.3,1.2,0.3,1.8c0,0.7-0.2,1.4-0.5,2
			c-0.3,0.6-0.8,1.1-1.4,1.5c-0.6,0.4-1.2,0.7-2,0.9c-0.7,0.2-1.5,0.3-2.4,0.3c-1.1,0-2-0.1-2.6-0.3c-0.4-0.1-0.7-0.2-1-0.3l0.4-2.6
			c0.2,0,0.5,0,0.7,0s0.5,0,0.7,0c0.8,0,1.4-0.1,2-0.4c0.6-0.3,0.8-0.7,0.8-1.3c0-1.1-0.7-1.7-2-1.7c-0.3,0-0.6,0-0.9,0.1
			c-0.3,0.1-0.6,0.2-0.9,0.4l-1.6-1.5l2.8-4c-2.2-0.4-4.2-1.2-6-2.4c-1.8-1.1-3.4-2.6-4.7-4.3c-1.3-1.7-2.4-3.6-3.1-5.8
			c-0.8-2.1-1.1-4.4-1.1-6.8c0-2.7,0.5-5.1,1.5-7.5c1-2.3,2.3-4.4,3.9-6.1s3.6-3.2,5.9-4.2c2.3-1,4.7-1.5,7.2-1.5
			c2.4,0,4.6,0.4,6.8,1.3c2.1,0.9,4.2,2.4,6.3,4.4l-4.7,5.7c-1.5-1.4-2.9-2.3-4.2-2.8c-1.3-0.5-2.7-0.7-4.2-0.7s-2.8,0.3-4.1,0.9
			s-2.4,1.4-3.4,2.4c-1,1-1.7,2.2-2.3,3.6c-0.5,1.4-0.8,2.9-0.8,4.5s0.3,3.1,0.8,4.5c0.5,1.4,1.3,2.6,2.3,3.6c1,1,2.1,1.9,3.4,2.5
			s2.7,0.9,4.1,0.9c1.7,0,3.4-0.4,5-1.2c1.6-0.8,3.3-2.1,4.9-3.9l5.2,4.9c-2,2.5-4.2,4.5-6.8,5.9s-5.1,2.1-7.8,2.3l-1.6,1.7
			C852.9,541.4,853.7,541.5,854.3,541.8z"/>
		<path class="st7" d="M919.1,501.5l15.7,37.6h-8.7l-3.4-8.1h-16l-3.3,8.1h-8.7l15.7-37.6H919.1z M918.6,493.8
			c0.5,0,0.9-0.1,1.4-0.3c0.5-0.2,1-0.4,1.4-0.7c0.5-0.3,0.9-0.6,1.2-0.8c0.3-0.3,0.6-0.5,0.7-0.7l2.4,2.9c-0.1,0.1-0.3,0.4-0.7,1
			c-0.4,0.5-0.9,1.1-1.6,1.7s-1.4,1.1-2.2,1.6c-0.8,0.5-1.7,0.7-2.7,0.7c-1,0-1.8-0.2-2.4-0.6s-1.2-0.9-1.7-1.4
			c-0.5-0.5-1.1-1-1.6-1.4c-0.5-0.4-1.1-0.6-1.8-0.6c-0.9,0-1.7,0.2-2.5,0.7c-0.8,0.5-1.5,1.1-2,1.8c-0.7-0.5-1.2-0.9-1.6-1.2
			c-0.4-0.3-0.6-0.5-0.8-0.6c-0.2-0.1-0.3-0.2-0.3-0.3c0.1-0.1,0.3-0.5,0.6-1.1s0.8-1.2,1.4-1.9c0.6-0.7,1.3-1.3,2.2-1.8
			c0.9-0.5,1.9-0.8,3.1-0.8c1.1,0,2,0.2,2.7,0.6c0.8,0.4,1.4,0.9,2,1.4c0.6,0.5,1.1,1,1.5,1.4C917.7,493.6,918.1,493.8,918.6,493.8z
			 M919.7,523.7l-4.9-11.8l-4.9,11.8H919.7z"/>
		<path class="st7" d="M979.9,500.9c2.5,0,4.9,0.5,7.2,1.5c2.3,1,4.2,2.4,5.9,4.2c1.7,1.8,3,3.8,4,6.1c1,2.3,1.5,4.8,1.5,7.5
			c0,2.6-0.5,5.1-1.5,7.5c-1,2.4-2.3,4.4-4,6.2c-1.7,1.8-3.6,3.2-5.9,4.2c-2.3,1-4.7,1.6-7.2,1.6s-4.9-0.5-7.2-1.6
			c-2.3-1-4.2-2.4-5.9-4.2c-1.7-1.8-3-3.8-3.9-6.2s-1.5-4.9-1.5-7.5c0-2.7,0.5-5.1,1.5-7.5s2.3-4.4,3.9-6.1c1.7-1.8,3.6-3.2,5.9-4.2
			C974.9,501.4,977.3,500.9,979.9,500.9z M979.9,531.7c1.4,0,2.8-0.3,4.1-0.9s2.4-1.4,3.3-2.5c1-1,1.7-2.3,2.2-3.6
			c0.5-1.4,0.8-2.9,0.8-4.5s-0.3-3.1-0.8-4.5c-0.5-1.4-1.3-2.6-2.2-3.7c-1-1-2.1-1.9-3.3-2.5c-1.3-0.6-2.6-0.9-4.1-0.9
			c-1.4,0-2.8,0.3-4.1,0.9c-1.3,0.6-2.4,1.4-3.3,2.5c-1,1-1.7,2.3-2.2,3.7s-0.8,2.9-0.8,4.5s0.3,3.1,0.8,4.5
			c0.5,1.4,1.3,2.6,2.2,3.6c1,1,2.1,1.9,3.3,2.5S978.5,531.7,979.9,531.7z"/>
	</g>
</g>
<g id="LOGO_BRANCA">
</g>
<g id="FAVICON">
</g>
</svg>
