<svg height="512pt" viewBox="-82 0 512 512" width="512pt" xmlns="http://www.w3.org/2000/svg"><path d="m121.015625 174.832031v3.253907c0 4.144531 3.359375 7.5 7.5 7.5s7.5-3.355469 7.5-7.5v-3.253907c0-4.140625-3.359375-7.5-7.5-7.5s-7.5 3.359375-7.5 7.5zm0 0"/><path d="m211.402344 174.832031v3.253907c0 4.144531 3.359375 7.5 7.5 7.5s7.5-3.355469 7.5-7.5v-3.253907c0-4.140625-3.359375-7.5-7.5-7.5s-7.5 3.359375-7.5 7.5zm0 0"/><path d="m235.464844 155.578125c2.773437 0 5.4375-1.539063 6.738281-4.195313 1.824219-3.71875.289063-8.210937-3.425781-10.039062-13.710938-6.726562-27.609375-6.726562-41.320313 0-3.71875 1.828125-5.253906 6.320312-3.425781 10.039062 1.824219 3.71875 6.320312 5.253907 10.035156 3.429688 9.457032-4.640625 18.648438-4.640625 28.101563 0 1.0625.519531 2.1875.769531 3.296875.765625zm0 0"/><path d="m149.960938 141.347656c-13.710938-6.730468-27.609376-6.730468-41.320313 0-3.714844 1.824219-5.25 6.316406-3.425781 10.035156 1.304687 2.65625 3.96875 4.199219 6.738281 4.199219 1.109375 0 2.234375-.246093 3.296875-.769531 9.457031-4.640625 18.648438-4.640625 28.101562 0 3.71875 1.824219 8.210938.289062 10.035157-3.429688 1.828125-3.71875.292969-8.210937-3.425781-10.035156zm0 0"/><path d="m173.710938 216.910156c-6.589844 0-13.007813-2.035156-18.5625-5.886718-3.402344-2.359376-8.078126-1.511719-10.433594 1.890624-2.359375 3.40625-1.515625 8.078126 1.890625 10.4375 8.074219 5.597657 17.445312 8.558594 27.101562 8.558594s19.03125-2.960937 27.105469-8.558594c3.402344-2.359374 4.25-7.03125 1.890625-10.4375-2.359375-3.402343-7.03125-4.25-10.4375-1.890624-5.550781 3.851562-11.96875 5.886718-18.554687 5.886718zm0 0"/><path d="m342.617188 411.046875c-.226563-.175781-.460938-.34375-.695313-.5v-23.097656c0-12.292969-7.273437-23.4375-18.527344-28.390625l-71.570312-31.550782c-5.660157-2.492187-9.3125-8.101562-9.3125-14.289062v-32.625c2.742187-2.710938 5.457031-5.582031 8.136719-8.609375 1.242187-1.40625 2.457031-2.824219 3.640624-4.253906l11.25 19.488281c.003907.003906.007813.011719.011719.015625l22.441407 38.875c.019531.03125.039062.0625.058593.09375l1.019531 1.769531c2.160157 3.753906 5.65625 6.4375 9.839844 7.5625 1.398438.375 2.816406.5625 4.226563.5625 2.8125 0 5.585937-.738281 8.082031-2.183594l17.128906-9.886718c7.722656-4.472656 10.382813-14.40625 5.925782-22.148438l-42.902344-74.308594c13.894531-3.066406 24.316406-15.476562 24.316406-30.28125v-14.28125c0-9.082031-3.925781-17.265624-10.167969-22.941406v-32.867187c8.726563-2.488281 15.132813-10.539063 15.132813-20.050781v-10.488282c0-11.496094-9.351563-20.847656-20.847656-20.847656h-2.785157c-5.511719-13.875-13.492187-26.46875-23.773437-37.503906-2.820313-3.03125-7.566406-3.199219-10.597656-.375-3.03125 2.820312-3.199219 7.566406-.378907 10.597656 7.609375 8.171875 13.78125 17.3125 18.421875 27.28125h-213.953125c17.128907-36.773438 54.253907-60.8125 95.472657-60.8125h23c19.078124 0 37.765624 5.152344 54.03125 14.902344 3.558593 2.132812 8.160156.976562 10.289062-2.578125 2.128906-3.550781.976562-8.160157-2.578125-10.289063-18.597656-11.144531-39.945313-17.035156-61.742187-17.035156h-23c-49.417969 0-93.679688 30.246094-111.800782 75.8125h-2.796875c-11.496093 0-20.847656 9.351562-20.847656 20.847656v10.488282c0 9.515624 6.40625 17.5625 15.132813 20.050781v32.867187c-6.242188 5.675782-10.167969 13.859375-10.167969 22.945313v14.277343c0 17.101563 13.910156 31.011719 31.007812 31.011719h6.328125c2.191406 5.484375 4.921875 11.082031 8.175782 16.71875 1.390624 2.40625 3.910156 3.75 6.503906 3.75 1.269531 0 2.5625-.324219 3.742187-1.003906 3.585938-2.070313 4.816407-6.65625 2.746094-10.246094-3.703125-6.414062-6.625-12.695312-8.722656-18.703125-.082031-.308594-.1875-.609375-.308594-.902344-2.386719-7.082031-3.613281-13.78125-3.613281-19.871093.0625-69.125-.019532-67.035157.109375-70.046875h39.292969.03125.058593 44.859375.027344.0625 44.859375.027344.0625 44.867187.03125.058594 17.773438c.125 3 .042968.851562.109374 70.042968 0 25.613282-20.976562 55.828126-39.683593 73.640626-.195313.164062-.382813.34375-.5625.53125-15.164063 14.285156-30.957031 23.058593-42.273438 23.058593h-27.183593c-17.773438 0-39.894532-19.414062-52.109376-33.230469-2.742187-3.101562-7.484374-3.394531-10.585937-.648437-3.105469 2.742187-3.394531 7.484375-.652344 10.585937 2.519531 2.847657 5.246094 5.726563 8.140625 8.554688v32.6875c0 6.1875-3.65625 11.796875-9.316406 14.289062l-71.578125 31.546876c-11.25 4.960937-18.515625 16.105468-18.515625 28.394531v23.097656c-.238281.15625-.472656.324219-.699219.5-3.050781 2.34375-4.800781 5.894531-4.800781 9.738281v11.863282c0 4.195312 2.140625 8.007812 5.5 10.238281v15.332031c0 8.542969 4.789062 16.175781 12.496094 19.921875 45.511718 22.152344 99.355468 33.859375 155.714844 33.859375 56.355468 0 110.199218-11.707031 155.707031-33.855469 7.710937-3.75 12.5-11.382812 12.5-19.925781v-15.332031c3.359375-2.230469 5.5-6.039063 5.5-10.238281v-11.859376c0-3.847656-1.75-7.398437-4.800781-9.742187zm-65.921876-178.894531 8.152344 14.121094-12.816406 22.191406-7.9375-13.753906c5.070312-7.476563 9.308594-15.074219 12.601562-22.558594zm30.628907 53.046875-12.8125 22.195312-13.820313-23.933593 12.816406-22.1875zm13.515625 25.84375-16.667969 9.621093 11.8125-20.464843 5.292969 9.171875c.339844.585937.136718 1.339844-.4375 1.671875zm-20.152344-113.753907c0 8.828126-7.179688 16.011719-16.007812 16.011719h-1.664063c1.1875-5.292969 1.804687-10.410156 1.804687-15.265625l-.019531-31.035156c8.769531.066406 15.886719 7.222656 15.886719 16.011719zm-44.484375-84.292968-12.8125-22.183594h27.636719l12.808594 22.183594zm-44.960937 0-12.804688-22.183594h27.632812l12.808594 22.183594zm-44.945313 0-12.804687-22.183594h27.628906l12.804687 22.183594zm-44.949219 0-12.8125-22.183594h27.636719l12.804687 22.183594zm-44.960937 0-12.804688-22.183594h27.632813l12.808594 22.183594zm229.265625-16.335938v10.488282c0 2.789062-1.964844 5.128906-4.582032 5.710937l-12.722656-22.046875h3.410156.050782.046875 7.949219c3.222656 0 5.847656 2.625 5.847656 5.847656zm-263.886719 0c0-2.789062 1.960937-5.128906 4.582031-5.710937l12.722656 22.046875h-11.457031c-3.222656 0-5.847656-2.625-5.847656-5.847656zm15.132813 31.335938h5.789062c-.097656 2.835937-.042969 3.339844-.070312 24.003906-1.953126.007812-3.863282.199219-5.71875.550781zm5.839843 85.304687c-8.828125 0-16.007812-7.183593-16.007812-16.011719v-14.277343c0-8.785157 7.109375-15.941407 15.878906-16.011719l-.019531 31.039062c0 4.859376.601562 9.972657 1.777344 15.261719zm227.78125-85.304687v24.554687c-1.855469-.355469-3.769531-.542969-5.726562-.550781-.03125-21.066406.027343-21.183594-.074219-24.003906zm3.609375 306.542968 38.289063-10.214843v6.238281c-.03125.007812-.0625.015625-.09375.023438l-38.195313 10.191406zm-240.839844 6.238282-38.1875-10.1875c-.035156-.011719-.066406-.019532-.101562-.03125v-6.234375l38.289062 10.214843zm-32.789062 17.441406v-10.664062l32.789062 8.746093v20.46875c-9.90625-3.582031-19.5-7.621093-28.730468-12.113281-2.503906-1.21875-4.058594-3.683594-4.058594-6.4375zm47.789062 23.550781v-67.929687c0-4.140625-3.359374-7.5-7.5-7.5-4.144531 0-7.5 3.359375-7.5 7.5v5.175781l-32.789062-8.746094v-22.820312c0-6.347657 3.753906-12.105469 9.5625-14.667969l71.578125-31.546875c11.097656-4.886719 18.269531-15.882813 18.269531-28.011719v-19.746094c12.882813 9.683594 27.175782 16.792969 40.210938 16.792969h27.179687c11.917969 0 26.007813-5.964843 40.210938-16.644531v19.597656c0 12.128906 7.167969 23.125 18.261719 28.011719l71.574218 31.550781c5.8125 2.5625 9.570313 8.316406 9.570313 14.667969v22.816406l-32.789063 8.75v-5.175781c0-4.144531-3.359375-7.5-7.5-7.5s-7.5 3.355469-7.5 7.5v67.925781c-32.785156 10.023438-68.515625 15.230469-105.417968 15.230469-36.90625 0-72.636719-5.207031-105.421876-15.230469zm254.566407-17.113281c-9.226563 4.492188-18.820313 8.53125-28.726563 12.113281v-20.46875l32.789063-8.746093v10.664062c0 2.753906-1.554688 5.21875-4.0625 6.4375zm0 0"/></svg>