<?xml version="1.0" encoding="iso-8859-1"?>
<!-- Generator: Adobe Illustrator 19.0.0, SVG Export Plug-In . SVG Version: 6.00 Build 0)  -->
<svg version="1.1" id="Capa_1" xmlns="http://www.w3.org/2000/svg" xmlns:xlink="http://www.w3.org/1999/xlink" x="0px" y="0px"
	 viewBox="0 0 496 496" style="enable-background:new 0 0 496 496;" xml:space="preserve">
<g>
	<g>
		<path d="M377.712,317.48L296,290.232v-16.576c7.856-5.136,14.832-11.488,20.688-18.792l34.912-11.632
			c9.808-3.272,16.4-12.416,16.4-22.76V90.424c0-8.408-2.464-16.544-7.128-23.528c-7.728-11.6-20.584-18.576-34.488-18.84
			C311.424,18.712,281.232,0,248,0s-63.424,18.712-78.384,48.048c-13.904,0.264-26.76,7.24-34.488,18.84
			C130.464,73.872,128,82.016,128,90.424v130.048c0,10.344,6.592,19.496,16.408,22.768l34.912,11.632
			c5.848,7.312,12.832,13.656,20.688,18.792v16.576l-81.712,27.24C95.392,325.104,80,346.456,80,370.592V496h336V370.592
			C416,346.456,400.608,325.104,377.712,317.48z M331.264,318.856l-50.568,94.56l-8.184-15.104l44.952-84.056L331.264,318.856z
			 M302.064,309.12l-38.68,72.336l-5.352-9.872l35.392-65.344L302.064,309.12z M248.936,354.784L216,293.976v-12.088
			c9.936,3.896,20.704,6.112,32,6.112s22.064-2.216,32-6.112v15.552L248.936,354.784z M320,144H176V96l144-0.016V144z M204.944,80
			l8-16h70.112l8,16H204.944z M325.576,64c8.864,0,17.08,4.4,21.984,11.768c2.912,4.352,4.44,9.416,4.44,14.656v130.048
			c0,3.448-2.192,6.496-5.472,7.592l-17.312,5.768C333.576,223.408,336,211.984,336,200V96c0-8.824-7.176-16-16-16h-11.056l-8-16
			H325.576z M248,16c24.288,0,46.52,12.288,59.736,32H188.264C201.48,28.288,223.712,16,248,16z M149.472,228.064
			c-3.28-1.096-5.472-4.152-5.472-7.592V90.424c0-5.232,1.528-10.304,4.44-14.656C153.344,68.4,161.56,64,170.424,64h24.632l-8,16
			H176c-8.824,0-16,7.176-16,16v104c0,11.984,2.424,23.408,6.784,33.832L149.472,228.064z M176,200v-40h144v40
			c0,39.704-32.296,72-72,72C208.296,272,176,239.704,176,200z M160,480V368h-16v112H96V370.592
			c0-17.24,10.992-32.496,27.352-37.944l27.576-9.192L234.648,480H160z M252.792,480l-86.464-161.68l13.8-4.6L269.048,480H252.792z
			 M287.192,480l-91.664-171.408l8.632-2.88L298.568,480H287.192z M400,480h-48V368h-16v112h-19.24l-26.936-49.736l56.84-106.28
			l25.984,8.664c16.36,5.456,27.352,20.704,27.352,37.944V480z"/>
	</g>
</g>
<g>
	<g>
		<circle cx="288" cy="176" r="8"/>
	</g>
</g>
<g>
	<g>
		<circle cx="208" cy="176" r="8"/>
	</g>
</g>
<g>
	<g>
		<path d="M264,216c0,8.824-7.176,16-16,16c-8.824,0-16-7.176-16-16h-16c0,17.648,14.352,32,32,32s32-14.352,32-32H264z"/>
	</g>
</g>
<g>
	<g>
		<rect x="240" y="112" width="16" height="16"/>
	</g>
</g>
<g>
</g>
<g>
</g>
<g>
</g>
<g>
</g>
<g>
</g>
<g>
</g>
<g>
</g>
<g>
</g>
<g>
</g>
<g>
</g>
<g>
</g>
<g>
</g>
<g>
</g>
<g>
</g>
<g>
</g>
</svg>
